<svg width="51" height="57" viewBox="0 0 51 57" fill="none" xmlns="http://www.w3.org/2000/svg">
    <g clip-path="url(#clip0_62_419)">
        <mask id="mask0_62_419" style="mask-type:luminance" maskUnits="userSpaceOnUse" x="0" y="0" width="51"
              height="57">
            <path d="M51 0H0V57H51V0Z" fill="white"/>
        </mask>
        <g mask="url(#mask0_62_419)">
            <path d="M33.198 28.0139L25.5001 14.5769L17.8022 28.0139L25.5001 41.451L33.198 28.0139Z" fill="#FF7AAD"/>
            <mask id="mask1_62_419" style="mask-type:luminance" maskUnits="userSpaceOnUse" x="0" y="0" width="51"
                  height="57">
                <path d="M51 0H0V57H51V0Z" fill="white"/>
            </mask>
            <g mask="url(#mask1_62_419)">
                <path d="M19.7143 15.4942C21.0168 14.748 22.3482 13.9898 23.7339 13.4918C24.0908 13.3591 24.4541 13.2448 24.8225 13.1495C24.9923 13.1067 25.174 13.0673 25.3506 13.0314C25.5272 12.9954 25.748 12.9612 25.8686 12.9475C26.1903 12.9088 26.5142 12.8905 26.8382 12.8928C26.9797 12.8928 27.1207 12.8996 27.2611 12.9133L27.4513 12.9321L27.5769 12.9458C27.4716 12.9338 27.6109 12.9458 27.6211 12.9458C27.9153 12.9919 28.2063 13.0571 28.4923 13.1409C28.6281 13.1803 28.764 13.2248 28.8964 13.2727C28.9632 13.2967 29.0294 13.3223 29.0951 13.3497L29.1732 13.3805C29.0798 13.3429 29.2395 13.4113 29.2547 13.4182C29.5086 13.5347 29.7543 13.6685 29.9901 13.8187C30.1055 13.8923 30.2176 13.9727 30.3297 14.0549C30.4418 14.137 30.2601 13.995 30.3654 14.0822L30.4299 14.1336C30.4927 14.1849 30.5539 14.2397 30.615 14.2945C30.7152 14.3869 30.812 14.4827 30.9037 14.582C30.9495 14.6316 30.9954 14.683 31.0378 14.7343C31.0599 14.76 31.082 14.7857 31.1024 14.8131L31.1414 14.8593C31.1092 14.8182 31.1092 14.8182 31.1414 14.8593C31.3142 15.0929 31.4633 15.3435 31.5864 15.6072C31.5982 15.6312 31.6084 15.6568 31.6203 15.6808C31.6764 15.804 31.5898 15.5935 31.6356 15.7202C31.6577 15.7783 31.6798 15.8365 31.7001 15.8913C31.7511 16.0427 31.7931 16.197 31.8258 16.3534C31.8445 16.4373 31.8598 16.5246 31.8716 16.6067C31.8598 16.5246 31.8801 16.6906 31.8801 16.6854C31.8801 16.7197 31.8801 16.7539 31.8801 16.7881C31.8912 16.9762 31.8912 17.1648 31.8801 17.3529C31.8626 17.6905 31.8056 18.0249 31.7103 18.349C31.6228 18.671 31.5039 18.9834 31.3554 19.2818C31.2174 19.5613 31.059 19.8302 30.8816 20.0862L30.8052 20.1906C30.7305 20.2933 30.8629 20.1204 30.7831 20.2197C30.7033 20.319 30.6608 20.3703 30.5963 20.4439C30.3356 20.735 30.0516 21.0041 29.7472 21.2483L29.6317 21.3407C29.5791 21.3818 29.7251 21.2706 29.6436 21.3305L29.5825 21.3767L29.3244 21.565C29.1444 21.6916 28.961 21.8131 28.7742 21.9278C28.3853 22.1691 27.9828 22.3882 27.5735 22.5901C27.363 22.6945 27.1507 22.7938 26.9367 22.8897L26.7771 22.9581C26.7567 22.9667 26.6463 23.0146 26.7601 22.9667L26.6956 22.9941L26.3356 23.1395C25.4121 23.5031 24.4658 23.805 23.503 24.0432C23.0331 24.1573 22.5594 24.2594 22.0816 24.3496C21.8438 24.3941 21.6044 24.4334 21.365 24.4694L21.1951 24.4933H21.1578H21.1187C20.9965 24.5105 20.8759 24.5241 20.7536 24.5378C19.9086 24.6406 19.0562 24.6686 18.2063 24.6217C18.0229 24.6114 17.8412 24.5943 17.6595 24.5721C17.5169 24.555 17.7325 24.5841 17.6323 24.5721L17.5203 24.555C17.432 24.5413 17.3504 24.5241 17.2553 24.507C17.0991 24.4762 16.9429 24.4386 16.7883 24.3924C16.7204 24.3718 16.6525 24.3496 16.5846 24.3256C16.5523 24.3136 16.52 24.3034 16.4878 24.2897L16.4725 24.2862C16.3791 24.2503 16.4725 24.2503 16.4929 24.2862C16.4776 24.2589 16.3468 24.2195 16.323 24.2024C16.2993 24.1853 16.2144 24.1442 16.1532 24.1134C16.0921 24.0826 16.0547 24.0483 16.0055 24.0141C15.9053 23.9439 16.0598 24.062 16.0191 24.0261L15.9426 23.9611C15.9036 23.9234 15.8645 23.8858 15.8289 23.8447L15.7779 23.7848C15.7321 23.7334 15.8391 23.8789 15.8102 23.8259C15.7983 23.8036 15.7779 23.7814 15.7643 23.7591C15.7222 23.6973 15.6842 23.6326 15.6506 23.5657C15.6183 23.4185 15.6251 23.5161 15.6506 23.5657C15.6389 23.5255 15.6248 23.486 15.6081 23.4476C15.5894 23.3843 15.5775 23.321 15.5622 23.2576C15.5402 23.1652 15.5622 23.3928 15.5622 23.2576C15.5622 23.22 15.5622 23.1823 15.5622 23.1464C15.5717 23.0789 15.5757 23.0108 15.5741 22.9427C15.5945 22.9615 15.5504 23.0779 15.5741 22.9855C15.575 22.9718 15.575 22.9581 15.5741 22.9444C15.5741 22.9033 15.5928 22.8623 15.6047 22.8229C15.6234 22.7527 15.6489 22.6843 15.6726 22.6175C15.6964 22.5508 15.6268 22.7082 15.6556 22.6569C15.6646 22.6403 15.6725 22.6231 15.6794 22.6055C15.6998 22.5645 15.7202 22.5234 15.7423 22.4823C15.7796 22.4121 15.8221 22.3437 15.8662 22.2769C15.8883 22.2427 15.9121 22.2085 15.9358 22.176L15.9664 22.1349C15.8934 22.2239 16.0174 22.0613 15.9664 22.1349C16.0785 21.9954 16.1981 21.8623 16.3247 21.7361C16.3961 21.6676 16.4674 21.6009 16.5421 21.5376C16.5795 21.5033 16.6185 21.4708 16.6576 21.4383C16.6966 21.4058 16.841 21.2945 16.734 21.375C17.1105 21.088 17.5078 20.83 17.9227 20.6031C18.1492 20.4776 18.3818 20.3601 18.6207 20.2505C18.7413 20.194 18.8618 20.141 18.9841 20.0794C19.1064 20.0178 18.8958 20.1153 19.0215 20.064L19.0962 20.0332C19.1732 20.0012 19.2496 19.9704 19.3254 19.9407C19.8753 19.7241 20.4359 19.5362 21.0049 19.3776C21.6287 19.2054 22.2588 19.0639 22.895 18.9532C23.2516 18.8916 23.5013 18.8556 23.8087 18.8197C24.116 18.7838 24.4506 18.7512 24.7715 18.7307C25.456 18.6834 26.1426 18.6754 26.828 18.7067C27.4426 18.7334 28.0551 18.7974 28.6621 18.8984C29.1138 18.9754 29.5621 19.0696 30.0053 19.1928C30.2454 19.2578 30.4831 19.3314 30.7186 19.4136C30.8375 19.4547 30.9563 19.4992 31.0735 19.5454L31.2535 19.6173C31.2756 19.6275 31.3571 19.6635 31.2671 19.6173L31.3741 19.6652C31.8972 19.8984 32.3951 20.1851 32.86 20.5209L33.0298 20.6493C32.967 20.598 33.0145 20.6373 33.0298 20.6493L33.13 20.7314C33.2489 20.829 33.3644 20.9317 33.4696 21.0361C33.6956 21.2504 33.9078 21.4791 34.1048 21.7207C34.1353 21.7566 34.1642 21.7926 34.1931 21.8302C34.1931 21.8302 34.2474 21.9004 34.2067 21.8474C34.2559 21.9107 34.3018 21.9757 34.3493 22.0425C34.4512 22.1862 34.548 22.3351 34.638 22.4875C34.7797 22.7261 34.9073 22.973 35.0201 23.2268C35.0286 23.2439 35.0558 23.309 35.0201 23.2268C35.0354 23.2628 35.049 23.2987 35.0642 23.3364C35.0795 23.374 35.1118 23.4596 35.1339 23.5212C35.178 23.6461 35.2188 23.7711 35.2561 23.8977C35.336 24.1656 35.3989 24.4383 35.4446 24.7141C35.4565 24.7792 35.465 24.8459 35.4752 24.9127C35.4599 24.81 35.4752 24.9007 35.4752 24.9281C35.4752 24.9554 35.4837 24.9948 35.4871 25.0273C35.5041 25.1762 35.5143 25.3251 35.5228 25.474C35.5372 25.7562 35.5372 26.039 35.5228 26.3212C35.5228 26.4616 35.5041 26.6019 35.4905 26.7405C35.4905 26.8124 35.4735 26.8826 35.4667 26.9528C35.4599 27.0229 35.4837 26.8398 35.4667 26.975C35.4667 27.0178 35.4548 27.0589 35.448 27.1017C35.4028 27.4029 35.3422 27.7007 35.2663 27.9951C35.1905 28.2895 35.1005 28.589 34.9963 28.8936C34.8842 29.2137 34.7959 29.4362 34.6788 29.6946C34.1368 30.914 33.4085 32.0401 32.5204 33.032C32.1183 33.4795 31.6847 33.897 31.2229 34.2814L31.0667 34.4081L31.0039 34.4577C30.9003 34.5399 31.0786 34.4012 30.9733 34.4817C30.868 34.5621 30.7373 34.6528 30.6167 34.7453C30.3976 34.901 30.1752 35.0516 29.9459 35.1937C29.4642 35.4943 28.9664 35.768 28.4549 36.0135L28.0881 36.1846C28.0253 36.2137 27.9641 36.2411 27.9013 36.2668L27.8283 36.2993C27.9268 36.2565 27.7688 36.3233 27.7518 36.3301C27.5039 36.4339 27.2531 36.5315 26.9995 36.6228C26.4731 36.8133 25.9387 36.9793 25.3965 37.1208C24.887 37.2543 24.364 37.3673 23.8409 37.4631L23.4673 37.523L23.2822 37.5504C23.1565 37.5675 23.3841 37.5367 23.2584 37.5504L23.1481 37.5658C22.895 37.5966 22.6386 37.6223 22.3873 37.6411C21.9186 37.6788 21.4465 37.6942 20.9761 37.6856C20.7502 37.6856 20.5261 37.6719 20.2968 37.6548C20.1932 37.6548 20.0913 37.6377 19.9894 37.6274L19.8383 37.612C19.7958 37.612 19.6022 37.5898 19.7568 37.6018C19.3836 37.562 19.0155 37.484 18.658 37.369C18.4882 37.3194 18.3337 37.2612 18.1758 37.1979L18.2233 37.2167C18.2032 37.2058 18.1821 37.1967 18.1605 37.1893L18.0586 37.1414C17.9873 37.1071 17.9159 37.0695 17.8463 37.0301C17.7767 36.9908 17.7342 36.9634 17.6765 36.9274L17.5933 36.8692L17.5542 36.8401C17.488 36.7956 17.6425 36.9155 17.5882 36.8658C17.4613 36.7562 17.3432 36.6366 17.235 36.5081C17.1403 36.3833 17.0557 36.2511 16.9819 36.1128C16.9412 36.0392 16.9055 35.9656 16.8699 35.892C16.8036 35.7533 16.8834 35.9313 16.8512 35.8492C16.8308 35.7978 16.8121 35.7465 16.7951 35.6934C16.7491 35.548 16.7139 35.3992 16.6898 35.2484C16.7034 35.3306 16.6898 35.2484 16.6898 35.2382L16.6797 35.1047C16.6797 35.0242 16.6797 34.9335 16.6797 34.8599C16.6797 34.7863 16.6881 34.711 16.6949 34.6374C16.6949 34.6152 16.7119 34.5193 16.6949 34.6083C16.6949 34.5724 16.7068 34.5347 16.7136 34.4988C16.7427 34.3442 16.7813 34.1916 16.8291 34.0418C16.8512 33.9699 16.8766 33.8981 16.9038 33.8279C16.9038 33.8279 16.9599 33.6841 16.9242 33.7714C16.9361 33.744 16.948 33.7149 16.9616 33.6876C17.0295 33.5335 17.1076 33.3846 17.1908 33.2374C17.274 33.0902 17.3487 32.9739 17.4353 32.8455C17.5179 32.7206 17.6075 32.6006 17.7037 32.4861C17.9186 32.2278 18.1562 31.9895 18.4135 31.7741C18.9309 31.3623 19.4974 31.0173 20.0998 30.7472C20.2696 30.6685 20.346 30.6359 20.4921 30.576C20.6381 30.5161 20.8317 30.4425 21.0015 30.3809C21.3412 30.2577 21.6961 30.1482 22.0493 30.0472C23.5444 29.5936 25.1104 29.4258 26.6667 29.5526C27.3358 29.6223 27.996 29.7617 28.6366 29.9684C28.7759 30.0129 28.9151 30.0609 29.0544 30.1122L29.2615 30.1909L29.343 30.2235L29.4263 30.2577L29.4517 30.268L29.518 30.2971L29.6199 30.3433L29.8202 30.4374C29.9595 30.5059 30.097 30.5777 30.2312 30.6531C30.4962 30.8044 30.7524 30.9706 30.9988 31.1511C31.1109 31.2332 30.9597 31.1186 31.0243 31.1699L31.1075 31.2367L31.2773 31.3753C31.3928 31.4797 31.5048 31.5875 31.6169 31.7005C31.729 31.8135 31.8037 31.9076 31.892 32.0171C31.9022 32.0291 31.9447 32.089 31.892 32.0171L31.965 32.1198C32.0092 32.1814 32.0517 32.2448 32.0924 32.3098C32.1654 32.4279 32.2334 32.5511 32.2945 32.6761C32.3098 32.7069 32.3234 32.7377 32.3387 32.7702L32.3641 32.8301C32.3387 32.7668 32.3896 32.8951 32.3879 32.8917C32.4032 32.9311 32.4168 32.9704 32.4304 33.0115C32.5166 33.271 32.5869 33.5357 32.6409 33.8039C32.6664 33.9289 32.6885 34.0521 32.7072 34.1788C32.7072 34.2096 32.7156 34.2404 32.7207 34.2712C32.7089 34.1548 32.7343 34.3482 32.7207 34.2712C32.7207 34.3465 32.7377 34.4201 32.7445 34.4954C32.7901 35.0001 32.7839 35.5083 32.7258 36.0118C32.7258 36.034 32.7072 36.1573 32.7258 36.0323L32.7156 36.1042C32.7072 36.1658 32.697 36.2257 32.6868 36.2856C32.6647 36.4191 32.6375 36.5509 32.607 36.6827C32.5501 36.9332 32.4803 37.1805 32.3981 37.4238C32.3573 37.5402 32.3149 37.6565 32.2707 37.7661L32.2436 37.8345C32.1994 37.9475 32.2707 37.7729 32.2436 37.8345C32.2164 37.8961 32.1892 37.9595 32.162 38.0211C32.0533 38.2588 31.9326 38.4907 31.8003 38.716C31.6679 38.9436 31.5235 39.1661 31.369 39.38L31.2552 39.5323C31.2705 39.5118 31.3112 39.457 31.2552 39.5323L31.1839 39.6231C31.0956 39.7326 31.0039 39.8404 30.9105 39.9465C30.7373 40.1416 30.5556 40.3282 30.3654 40.5062C30.2703 40.5969 30.1718 40.6859 30.0716 40.7715L29.9187 40.8998L29.8253 40.9769L29.7931 41.0025C29.3387 41.3529 28.8545 41.6622 28.3462 41.9267C28.2188 41.9935 28.0915 42.0568 27.9624 42.1184L27.7637 42.2091L27.6652 42.2519C27.6494 42.2602 27.633 42.2671 27.616 42.2725C27.3256 42.3906 27.0335 42.5001 26.7346 42.5942C25.5115 43.018 24.2152 43.1852 22.9256 43.0854L22.7269 43.0649C22.6369 43.0529 22.7184 43.0649 22.7269 43.0649L22.6148 43.0495C22.4824 43.0272 22.3516 43.0033 22.2208 42.9725C22.0079 42.9272 21.7975 42.8701 21.5908 42.8013C21.4991 42.7688 21.4091 42.7329 21.3174 42.6969C21.2257 42.661 21.4176 42.7431 21.3174 42.6969L21.2682 42.6747L21.1255 42.6079C20.978 42.5362 20.8345 42.4562 20.6959 42.3683C20.6398 42.3324 20.5838 42.2947 20.5261 42.2554C20.4683 42.216 20.3274 42.0842 20.4649 42.2143C20.3953 42.1509 20.3206 42.0962 20.2526 42.0329C20.1922 41.9798 20.1355 41.9226 20.0828 41.8617C19.9948 41.7742 19.8762 41.7252 19.7525 41.7252C19.6289 41.7252 19.5103 41.7742 19.4222 41.8617C19.3369 41.9515 19.2893 42.0711 19.2893 42.1954C19.2893 42.3198 19.3369 42.4394 19.4222 42.5292C19.6718 42.8134 19.9683 43.0519 20.2985 43.2343C21.1547 43.7217 22.113 43.9985 23.0954 44.0422C24.4879 44.1156 25.8812 43.9133 27.1965 43.4466C28.3999 43.0425 29.5232 42.4278 30.5148 41.6307C31.3955 40.9313 32.1288 40.0618 32.6718 39.0732C33.2147 38.0845 33.5564 36.9966 33.6768 35.8731C33.7272 35.3428 33.7198 34.8085 33.6547 34.2797C33.5955 33.6944 33.462 33.1192 33.2574 32.5682C32.7666 31.3394 31.7715 30.4237 30.632 29.8007C29.3883 29.1297 28.0215 28.7219 26.6158 28.6027C24.9447 28.4521 23.2449 28.7122 21.6418 29.1846C20.2153 29.6056 18.7956 30.1927 17.6629 31.1853C16.644 32.0856 15.7949 33.4377 15.7474 34.836C15.7321 35.4181 15.8659 35.9943 16.136 36.5091C16.4061 37.0238 16.8033 37.4597 17.2893 37.7746C17.9386 38.1473 18.655 38.3858 19.3968 38.4763C21.4346 38.7896 23.5709 38.5499 25.5663 38.0365C27.8503 37.4529 30.058 36.4551 31.8835 34.9387C32.9399 34.0575 33.8562 33.0186 34.6006 31.858C35.3481 30.7193 35.8971 29.4604 36.2241 28.1354C36.5275 26.9138 36.5744 25.6418 36.3617 24.4009C36.1277 23.1594 35.5777 22.0005 34.7654 21.0378C33.2828 19.2476 31.0718 18.3525 28.8387 17.9862C26.0689 17.5499 23.2377 17.7369 20.5481 18.5339C19.3989 18.8584 18.2914 19.318 17.2485 19.9031C16.4368 20.3703 15.6523 20.9471 15.102 21.7207C14.6843 22.3043 14.455 23.0899 14.7166 23.7745C14.8319 24.076 15.0078 24.3503 15.233 24.5803C15.4583 24.8103 15.7282 24.991 16.0259 25.1112C16.7249 25.3909 17.4665 25.5472 18.2182 25.5733C19.099 25.621 19.9822 25.5889 20.8572 25.4775C22.9075 25.2465 24.9172 24.7364 26.8314 23.9611C27.7531 23.5949 28.6389 23.1428 29.4772 22.6107C30.2067 22.1559 30.8611 21.5888 31.4165 20.93C32.2928 19.8466 32.8549 18.4312 32.8243 17.0226C32.8063 16.3548 32.6479 15.6984 32.3596 15.0968C32.0712 14.4952 31.6595 13.9622 31.1516 13.5329C30.1785 12.7183 28.9961 12.1984 27.7417 12.0336C26.2642 11.8282 24.7732 12.1072 23.3824 12.6189C21.9305 13.1546 20.5787 13.9145 19.2405 14.6727C19.1876 14.704 19.1412 14.7454 19.1041 14.7947C19.0671 14.844 19.04 14.9002 19.0245 14.96C19.0089 15.0198 19.0053 15.0822 19.0136 15.1434C19.022 15.2047 19.0423 15.2637 19.0733 15.3171C19.1043 15.3705 19.1454 15.4172 19.1943 15.4545C19.2432 15.4919 19.2989 15.5192 19.3583 15.5348C19.4177 15.5505 19.4795 15.5542 19.5403 15.5458C19.6011 15.5373 19.6597 15.5169 19.7126 15.4857"
                      fill="#00FFC2"/>
                <path d="M48.5206 39.5358L47.6172 42.7038L48.4069 42.9314L50.4668 35.7157L50.4753 35.6849L49.6839 35.4573L48.7839 38.6116L40.5324 36.2155H40.5035L40.2471 37.1397L48.5206 39.5358ZM33.5121 46.0977L32.6867 46.5786L37.3975 54.7939L37.4128 54.8195L38.2381 54.3386L35.9625 50.3748L40.7294 47.5799L42.9896 51.5163L43.0049 51.5437L43.8319 51.0628L39.1195 42.8561L39.1042 42.8287L38.2789 43.3097L40.3167 46.8627L35.5482 49.6422L33.5256 46.1165L33.5121 46.0977ZM21.5806 47.5285H21.55L21.5602 48.3586L24.8173 48.3175L24.9243 56.9692V56.9932L25.8787 56.9812L25.77 48.2987L29.039 48.2645L29.0288 47.4361L21.5806 47.5285ZM8.12413 52.1599L8.11055 52.1872L13.9693 55.2525L14.348 54.5166L9.34004 51.8946L11.0195 48.6427L15.659 51.0696L16.0377 50.3337L11.3931 47.8999L12.9215 44.9236L17.8751 47.5148L18.2538 46.7789L12.4579 43.7444L8.12413 52.1599ZM1.46554 37.2817C1.31614 37.676 1.24293 38.0955 1.24987 38.5174C1.25476 38.9727 1.32336 39.425 1.45365 39.861C1.59486 40.4035 1.84642 40.9106 2.19236 41.35C2.45307 41.6708 2.77837 41.9321 3.14674 42.1167C3.44711 42.2635 3.77585 42.3418 4.10962 42.3461H4.13169C4.4064 42.3488 4.68016 42.3131 4.94513 42.24C5.25654 42.1547 5.54612 42.003 5.79422 41.795C5.99823 41.6148 6.1645 41.3955 6.2833 41.1497C6.39943 40.9025 6.4713 40.6366 6.49557 40.3642C6.52314 40.0798 6.53165 39.7939 6.52104 39.5084L6.41406 37.3434C6.40136 37.1096 6.40136 36.8754 6.41406 36.6416C6.42781 36.4088 6.47118 36.1787 6.54312 35.957C6.61159 35.745 6.72322 35.5497 6.87087 35.3837C7.0343 35.2114 7.24269 35.0892 7.47203 35.0311C7.76036 34.9349 8.07111 34.9307 8.36188 35.0191C8.63373 35.1081 8.88417 35.2532 9.0972 35.4453C9.3134 35.6433 9.49736 35.8743 9.64231 36.1299C9.77999 36.3619 9.89 36.6095 9.97006 36.8676C10.0873 37.2576 10.1625 37.6593 10.1942 38.0656C10.2244 38.4201 10.1852 38.7772 10.0787 39.1165C9.9706 39.439 9.78167 39.7278 9.53023 39.9551C9.21805 40.224 8.84749 40.4151 8.44849 40.5131H8.41962L8.69133 41.4338H8.7202C9.21976 41.3225 9.68775 41.0984 10.0889 40.7783C10.4235 40.4985 10.6838 40.1391 10.8463 39.7326C11.0092 39.3033 11.0832 38.8449 11.0637 38.3857C11.0438 37.8631 10.957 37.3454 10.8056 36.8453C10.6755 36.3799 10.4895 35.9322 10.252 35.512C10.0725 35.1952 9.8476 34.9069 9.58458 34.6563C9.37835 34.4594 9.13689 34.3037 8.87303 34.1976C8.65459 34.1122 8.42639 34.0547 8.19376 34.0265C7.99881 33.9996 7.80114 33.9996 7.60619 34.0265C7.46573 34.0477 7.32676 34.078 7.19013 34.1172C6.8593 34.2069 6.55205 34.3687 6.29009 34.5913C6.06913 34.7883 5.89302 35.0312 5.77384 35.3032C5.65429 35.5883 5.57594 35.8892 5.54119 36.1966C5.50336 36.5301 5.48974 36.8659 5.50043 37.2013L5.60402 39.5717C5.62023 39.7619 5.62023 39.9532 5.60402 40.1434C5.58761 40.3206 5.54288 40.494 5.47156 40.6568C5.40199 40.813 5.29941 40.9521 5.17098 41.0642C5.02239 41.189 4.84851 41.2795 4.66153 41.3294C4.37682 41.4264 4.07222 41.4482 3.77677 41.3928C3.52757 41.3385 3.29474 41.2253 3.0975 41.0625C2.89116 40.8881 2.71846 40.6769 2.58804 40.4395C2.44451 40.1794 2.33057 39.9038 2.2484 39.6179C2.15554 39.3095 2.10917 38.9887 2.11085 38.6663C2.11029 38.3659 2.1638 38.0678 2.26878 37.7866C2.37432 37.5133 2.53575 37.2655 2.74257 37.0592C2.9749 36.8335 3.25465 36.6632 3.5611 36.5612L3.58827 36.5509L3.31656 35.6318H3.28769C2.85553 35.7517 2.45868 35.9755 2.13123 36.2839C1.84027 36.566 1.61319 36.9081 1.46554 37.2869M4.67172 23.7335C4.9502 24.1947 5.06012 24.7395 4.98248 25.2738L4.67002 28.322L0.915324 27.9318L1.22779 24.8819C1.25856 24.3418 1.47677 23.8299 1.84423 23.4357C2.18387 23.0934 2.68314 22.9479 3.31486 23.0129C3.94659 23.0779 4.4034 23.3193 4.67341 23.7283M4.52907 22.3745C4.18101 22.1987 3.80295 22.0913 3.41506 22.0579C3.02855 22.011 2.63673 22.0383 2.26029 22.1383C1.92418 22.2312 1.61233 22.3971 1.34666 22.6244C1.08295 22.8561 0.871582 23.142 0.726825 23.463C0.566051 23.8226 0.466174 24.2067 0.43134 24.5995L0 28.7738V28.8046L9.35872 29.7802H9.38928L9.48608 28.8252L5.48854 28.411L5.82818 25.1591C5.8738 24.7672 5.85371 24.3703 5.76875 23.985C5.6916 23.6411 5.5422 23.3178 5.33061 23.0369C5.11697 22.7601 4.84567 22.534 4.53586 22.3745M10.004 14.1011L8.28886 17.2948L5.03513 13.4199L10.004 14.1011ZM14.4771 13.692L4.43567 12.4426H4.41529L3.91942 13.3634L10.3878 21.2227L10.415 21.2569L10.8973 20.3601L8.86964 17.964L10.882 14.2055L13.9693 14.5889H13.9897L14.4771 13.692ZM23.3925 8.33675L24.0328 8.04408L22.0595 3.59416L18.371 5.25946L18.7106 6.01594L21.6247 4.6998C21.8191 5.11368 21.9437 5.55734 21.9932 6.01252C22.0379 6.4335 21.9939 6.85924 21.8642 7.26192C21.7331 7.66364 21.5157 8.03124 21.2274 8.33846C20.9007 8.67979 20.5099 8.95209 20.0777 9.13944C19.5811 9.37793 19.0345 9.49129 18.4848 9.46976C18.0008 9.44555 17.5289 9.30908 17.1059 9.07098C16.6811 8.82474 16.3052 8.50155 15.9969 8.11767C15.6752 7.72489 15.4073 7.29027 15.2005 6.82549C14.9917 6.35641 14.8483 5.86052 14.7742 5.35188C14.6977 4.86604 14.7092 4.37024 14.8082 3.88854C14.9116 3.41338 15.1206 2.96805 15.4196 2.58609C15.7685 2.15848 16.2155 1.82304 16.7221 1.60882C17.0958 1.43411 17.4994 1.33358 17.9108 1.31273C18.2699 1.29499 18.6294 1.33897 18.9739 1.4428C19.2813 1.5395 19.5701 1.68825 19.828 1.88266C20.0608 2.05216 20.2562 2.26834 20.402 2.51763L20.4156 2.54159L21.2885 2.14623L21.2681 2.11713C21.0032 1.70444 20.6619 1.34706 20.2628 1.06456C19.5299 0.54939 18.631 0.332367 17.7461 0.456972C17.2766 0.521711 16.819 0.65489 16.3875 0.85233C15.769 1.11644 15.2175 1.51776 14.7742 2.02642C14.3857 2.48116 14.1011 3.01635 13.9404 3.59416C13.7879 4.17548 13.7476 4.7809 13.8216 5.37755C13.9818 6.64639 14.5139 7.83821 15.3499 8.80056C15.7413 9.25221 16.216 9.62304 16.7475 9.8925C17.282 10.1565 17.8676 10.2985 18.4627 10.3084H18.5578C19.1976 10.2971 19.8279 10.1495 20.4071 9.87539C20.7138 9.73603 21.0047 9.56389 21.2749 9.36194C21.5365 9.16812 21.7692 8.93758 21.9661 8.67734C22.3608 8.14765 22.5838 7.50813 22.6046 6.84602L23.3925 8.33675ZM39.2282 3.57534L39.2434 3.54795L38.4028 3.09269L36.4703 6.70397L31.622 4.06825L33.5409 0.482645L33.5562 0.456972L32.7105 0L28.2443 8.34359L28.229 8.37098L29.0781 8.82795L31.2263 4.79222L36.0746 7.42794L33.9315 11.4363L33.9162 11.4637L34.7568 11.9206L39.2282 3.57534ZM47.9874 17.0808L48.7193 16.7026L45.7322 10.8424L37.3364 15.1913L40.3541 21.108L41.086 20.7298L38.5047 15.6671L41.7449 13.9881L44.1342 18.6742L44.8661 18.296L42.4768 13.6099L45.4367 12.0695L47.9874 17.0808ZM51 30.2029L50.3819 22.7202V22.6894L49.5616 22.7579L49.8316 26.0286L41.2762 26.7457H41.2456L41.3254 27.7041L49.9115 26.9836L50.1815 30.268L51 30.2029Z"
                      fill="#1D1D1B"/>
                <g opacity="0.65">
                    <mask id="mask2_62_419" style="mask-type:luminance" maskUnits="userSpaceOnUse" x="14" y="12"
                          width="23" height="21">
                        <path d="M36.0847 12.3519H14.915V32.2088H36.0847V12.3519Z" fill="white"/>
                    </mask>
                    <g mask="url(#mask2_62_419)">
                        <path d="M22.3052 20.1513H28.6938L25.4995 14.5769L22.3052 20.1513Z" fill="#FF7AAD"/>
                        <path d="M17.8018 28.0139L20.1096 32.0377H30.8846L33.1975 28.0139H17.8018Z" fill="#FF7AAD"/>
                    </g>
                </g>
            </g>
        </g>
    </g>
    <defs>
        <clipPath id="clip0_62_419">
            <rect width="51" height="57" fill="white"/>
        </clipPath>
    </defs>
</svg>
