<svg width="76" height="114" viewBox="0 0 76 114" fill="none" xmlns="http://www.w3.org/2000/svg">
    <g clip-path="url(#clip0_95_354)">
        <path d="M44.3136 108.05C34.4885 111.7 24.4121 112.312 14.1347 110.65C11.647 110.25 10.0262 108.025 10.2524 105.525C10.4786 102.988 12.3506 101.3 15.0519 101.375C19.5624 101.5 24.098 102.113 28.5708 101.8C40.1423 100.988 50.2187 96.6125 57.4304 87.325C64.9689 77.6125 65.9112 66.9375 60.5463 55.5625C62.7702 53.575 65.0317 51.55 67.4314 49.4C70.6227 53.6125 72.2183 58.4 72.9847 63.5375C75.7614 82.425 64.2779 100.625 44.3136 108.062M45.6202 47.7875C39.7905 51.25 33.9231 53.1875 27.729 53.975C24.6885 54.3625 21.5475 54.25 18.4944 53.95C16.8485 53.7875 14.7503 53.1625 14.6373 50.9875C14.5116 48.7625 16.4088 47.675 18.1929 47.325C21.7988 46.6125 25.4675 46.0625 29.1236 45.9C34.501 45.6625 39.8785 46.0375 45.6202 47.7875ZM57.1917 54.725C46.3992 62.375 34.4005 66.5125 21.0701 66.425C16.2831 66.4 11.8857 65.075 8.07882 62.025C1.80935 57 0.69115 48.4875 5.47806 42.0625C9.25984 36.9875 14.5744 34.5875 20.6177 33.8C30.6439 32.5125 40.582 32.8125 50.2061 36.35C52.2792 37.1125 54.2517 38.1375 57.0284 39.3875C54.1387 41.6875 51.7892 43.675 49.3015 45.45C48.7612 45.8375 47.6179 45.6125 46.8264 45.4C37.7426 42.9 28.5457 42.5125 19.3488 44.3875C16.949 44.875 14.5493 46.2625 12.5768 47.7875C10.2273 49.625 11.6093 53.825 14.4991 55.275C18.7834 57.4125 23.2688 57.3375 27.7164 56.625C39.9915 54.675 50.8846 49.75 59.0889 40.2125C64.0643 34.4375 65.8861 28.0875 61.4761 22.1C58.8125 18.4625 55.2066 16.05 50.9976 14.6C37.7677 10.05 24.9021 11.825 12.2626 17.0125C11.3078 17.4 10.4032 17.9375 9.4483 18.3125C6.83498 19.3125 4.09601 18.2625 3.07832 15.9125C2.0732 13.5875 2.99037 11.075 5.47806 9.78751C11.9737 6.43751 18.8588 4.23751 26.1082 3.27501C36.1595 1.93751 46.0725 2.35001 55.6087 6.22501C59.9935 8.00001 63.8632 10.525 67.0796 14.025C74.216 21.7875 75.3594 31.2625 70.3714 40.575C67.2178 46.4625 62.544 50.925 57.1917 54.7125M69.2281 47.3625C70.585 45.0625 71.9922 42.9875 73.0978 40.75C78.136 30.55 76.5781 20.475 68.8009 12.15C65.1448 8.23751 60.785 5.32501 55.7469 3.57501C37.8054 -2.66249 20.4921 -0.42499 3.73165 7.86251C2.85217 8.30001 2.06063 9.11251 1.48269 9.93751C-0.439615 12.6125 -0.276282 16.1125 1.74653 18.575C4.04575 21.3625 7.53856 22.1 11.1947 20.3625C21.1329 15.65 31.5234 13.575 42.4792 15.1C48.2838 15.9 53.7492 17.65 58.021 21.975C61.9158 25.9125 63.034 31.05 57.9581 37.2375C50.96 33.05 43.2079 31.2125 35.1544 30.7625C27.0003 30.3 18.7834 30.2875 11.2324 34.1C4.67396 37.3875 0.263972 42.525 0.000127222 50.125C-0.263718 57.875 3.80704 63.2125 10.6293 66.575C16.6852 69.5625 23.0929 69.325 29.5508 68.4375C39.9413 67.0125 49.3769 63.175 58.2848 57.125C58.8125 58.175 59.3151 58.9875 59.6417 59.875C62.1168 66.625 62.0917 73.4125 58.9758 79.875C53.0958 92.05 42.5923 97.7375 29.6011 99.1125C24.6508 99.6375 19.5749 98.8375 14.5619 98.7875C10.868 98.7625 7.92805 101.738 7.62651 105.525C7.36267 108.9 9.85035 112.413 13.2426 112.963C16.5972 113.5 20.0021 113.913 23.3944 113.975C37.8682 114.238 50.9725 110.263 61.7274 100.338C73.0727 89.875 77.7214 76.9 75.2212 61.5625C74.3668 56.3 72.256 51.5625 69.2281 47.35"
              fill="#FF7AAD"/>
    </g>
    <defs>
        <clipPath id="clip0_95_354">
            <rect width="76" height="114" fill="white"/>
        </clipPath>
    </defs>
</svg>
