<svg width="120" height="113" viewBox="0 0 120 113" fill="none" xmlns="http://www.w3.org/2000/svg">
    <g clip-path="url(#clip0_96_153)">
        <path d="M58.9115 28.4985C58.9334 28.564 58.9662 28.6077 58.999 28.6733C59.2507 30.0059 59.5024 31.3494 59.7431 32.6821C53.4512 33.0425 47.0826 36.101 41.7864 41.3332C36.731 46.3251 33.1418 52.9991 31.1175 61.1478C28.9618 69.8208 28.8414 78.8979 28.7211 87.7566C28.7211 88.2045 28.9071 88.6305 29.2682 88.9582C29.6293 89.2859 30.1217 89.4715 30.5813 89.4715C30.636 89.4715 30.7017 89.4715 30.7673 89.4715C31.7303 89.3623 32.3868 88.5758 32.3977 87.5163C32.4087 86.4567 32.4306 85.3972 32.4415 84.3267C32.5838 76.1344 32.9339 67.4505 35.4179 59.3564C37.5517 52.3874 41.2284 46.5326 46.0212 42.4255C51.1204 38.0672 57.0513 35.9153 62.7195 36.3741C68.5081 36.8438 74.1654 39.804 79.5382 45.1563C84.703 50.312 88.6752 56.5819 92.0017 62.0544C92.0455 62.12 92.0892 62.1746 92.133 62.2292C94.2559 66.7841 94.4309 72.3768 90.4041 75.9924C86.8697 79.171 81.7376 78.1552 77.7108 76.5167C75.2925 75.5336 72.9945 74.2447 71.0249 72.5188C70.9045 72.4096 70.7841 72.3331 70.6528 72.2676C70.5762 72.1474 70.4887 72.0273 70.3793 71.918L65.7396 67.1446C65.1706 66.5657 64.2624 66.5875 63.6387 66.9043C63.201 67.1337 62.6757 67.6252 62.6757 68.7066C62.6648 70.7711 62.6538 72.9011 62.5882 74.9874C62.3365 83.2344 61.4939 91.82 57.0513 98.7234C53.2433 104.644 47.575 108.565 41.874 109.199C34.2908 110.04 28.0864 104.753 24.2346 100.154C21.6522 97.085 19.4527 93.6879 17.6472 90.7714C15.4478 87.2323 13.5875 83.9007 11.968 80.591C8.19288 72.8683 5.87306 65.6918 4.89917 58.6792C3.9034 51.5245 4.37393 44.6757 6.29982 38.3293C8.3023 31.7099 11.7492 25.9097 16.2466 21.5514C20.6674 17.2695 26.248 14.5387 31.96 13.8615C37.5626 13.1842 43.384 14.2219 48.341 16.778C53.4183 19.3995 57.1716 23.5503 58.9006 28.4767M119.675 59.1052C119.467 52.879 117.87 46.4234 115.079 40.4375C112.497 34.8885 108.842 29.5908 104.235 24.6863C100.001 20.186 95.0218 15.9587 89.4193 12.1356C82.241 7.23113 76.4633 4.18357 70.6857 2.26109C63.6934 -0.0655396 57.1169 -0.600774 51.1423 0.677235C46.6121 1.6494 40.2764 3.99787 35.7462 9.69976C35.6586 9.80899 35.593 9.91822 35.5273 10.0384C32.7041 10.0275 29.8919 10.3551 27.1563 11.0979C20.9081 12.7801 14.9335 16.8653 10.3486 22.6218C6.0372 28.0397 2.99518 34.823 1.57265 42.218C0.182945 49.4054 0.456508 57.0953 2.37145 65.0911C4.14414 72.486 7.19711 79.9793 11.7164 88.0078C13.883 91.8528 15.9949 95.228 18.1615 98.3084C20.9081 102.219 23.4796 105.113 26.2371 107.429C29.5965 110.236 33.1637 112.006 36.8404 112.694C37.9347 112.891 39.0508 113 40.1669 113C42.6618 113 45.1896 112.508 47.6188 111.525C54.1953 108.871 59.6775 103.147 62.6648 95.8288C63.0149 94.955 63.3323 94.092 63.6168 93.2182C64.8533 93.961 66.0132 94.5727 67.1403 95.086C72.0316 97.3034 77.3497 98.4504 82.7115 98.4504C84.1012 98.4504 85.4909 98.3739 86.8806 98.221C93.1069 97.5328 99.1143 95.1953 104.257 91.4705C109.149 87.9204 113.154 83.2126 115.824 77.8602C118.57 72.3659 119.894 65.8885 119.664 59.1161"
              fill="#FF7AAD"/>
    </g>
    <defs>
        <clipPath id="clip0_96_153">
            <rect width="119" height="113" fill="white" transform="translate(0.697266)"/>
        </clipPath>
    </defs>
</svg>
